# xmcd
#
# Track frame offsets:
#	150
#	14132
#	27694
#	42896
#	57909
#	73437
#	83942
#	96748
#	108560
#	128632
#	143051
#	158203
#	178750
#
# Disc length: 2596 seconds
#
# Revision: 0
# Processed by: cddbd v1.4PL0 Copyright (c) Steve Scherf et al.
# Submitted via: dBpowerAMP V4.0
#
DISCID=c60a220d
DTITLE=Isaacs - Increase My Faith
DYEAR=1900
DGENRE=Christian Country
TTITLE0=They Don't Know What God Knows
TTITLE1=Rest on the Rock
TTITLE2=Promise from on High
TTITLE3=See the King
TTITLE4=I Need Jesus
TTITLE5=Come and Dine
TTITLE6=Increase My Faith
TTITLE7=Ye Men of Galilee
TTITLE8=She Cries
TTITLE9=Goodbye
TTITLE10=I Could Make It One More Day
TTITLE11=I've Come to Take You Home
TTITLE12=I Just Want to Thank You
EXTD=
EXTT0=
EXTT1=
EXTT2=
EXTT3=
EXTT4=
EXTT5=
EXTT6=
EXTT7=
EXTT8=
EXTT9=
EXTT10=
EXTT11=
EXTT12=
PLAYORDER=
